<mxfile host="Electron" agent="Mozilla/5.0 (Macintosh; Intel Mac OS X 10_15_7) AppleWebKit/537.36 (KHTML, like Gecko) draw.io/27.0.9 Chrome/134.0.6998.205 Electron/35.4.0 Safari/537.36" version="27.0.9" pages="4">
  <diagram name="arrival" id="JwJWs1wxrFiJIO75Ynjx">
    <mxGraphModel dx="2015" dy="760" grid="1" gridSize="10" guides="1" tooltips="1" connect="1" arrows="1" fold="1" page="1" pageScale="1" pageWidth="827" pageHeight="1169" math="0" shadow="0">
      <root>
        <mxCell id="0" />
        <mxCell id="1" parent="0" />
        <mxCell id="88x0qJK0hBYKP3XFJv6N-4" style="edgeStyle=orthogonalEdgeStyle;rounded=0;orthogonalLoop=1;jettySize=auto;html=1;exitX=0.5;exitY=1;exitDx=0;exitDy=0;entryX=0.5;entryY=0;entryDx=0;entryDy=0;" edge="1" parent="1" source="88x0qJK0hBYKP3XFJv6N-1" target="88x0qJK0hBYKP3XFJv6N-2">
          <mxGeometry relative="1" as="geometry" />
        </mxCell>
        <mxCell id="88x0qJK0hBYKP3XFJv6N-1" value="Evento&lt;br&gt;Chegada" style="ellipse;whiteSpace=wrap;html=1;" vertex="1" parent="1">
          <mxGeometry x="130" y="70" width="120" height="60" as="geometry" />
        </mxCell>
        <mxCell id="88x0qJK0hBYKP3XFJv6N-5" style="edgeStyle=orthogonalEdgeStyle;rounded=0;orthogonalLoop=1;jettySize=auto;html=1;exitX=0.5;exitY=1;exitDx=0;exitDy=0;entryX=0.5;entryY=0;entryDx=0;entryDy=0;" edge="1" parent="1" source="88x0qJK0hBYKP3XFJv6N-2" target="88x0qJK0hBYKP3XFJv6N-3">
          <mxGeometry relative="1" as="geometry" />
        </mxCell>
        <mxCell id="88x0qJK0hBYKP3XFJv6N-2" value="Gerar outro evento Chegada" style="rounded=0;whiteSpace=wrap;html=1;" vertex="1" parent="1">
          <mxGeometry x="130" y="160" width="120" height="60" as="geometry" />
        </mxCell>
        <mxCell id="88x0qJK0hBYKP3XFJv6N-8" style="edgeStyle=orthogonalEdgeStyle;rounded=0;orthogonalLoop=1;jettySize=auto;html=1;exitX=1;exitY=0.5;exitDx=0;exitDy=0;entryX=0;entryY=0.5;entryDx=0;entryDy=0;" edge="1" parent="1" source="88x0qJK0hBYKP3XFJv6N-3" target="88x0qJK0hBYKP3XFJv6N-6">
          <mxGeometry relative="1" as="geometry" />
        </mxCell>
        <mxCell id="88x0qJK0hBYKP3XFJv6N-11" value="Não" style="edgeLabel;html=1;align=center;verticalAlign=middle;resizable=0;points=[];" vertex="1" connectable="0" parent="88x0qJK0hBYKP3XFJv6N-8">
          <mxGeometry x="-0.1616" y="1" relative="1" as="geometry">
            <mxPoint y="-9" as="offset" />
          </mxGeometry>
        </mxCell>
        <mxCell id="88x0qJK0hBYKP3XFJv6N-9" style="edgeStyle=orthogonalEdgeStyle;rounded=0;orthogonalLoop=1;jettySize=auto;html=1;exitX=0;exitY=0.5;exitDx=0;exitDy=0;entryX=1;entryY=0.5;entryDx=0;entryDy=0;" edge="1" parent="1" source="88x0qJK0hBYKP3XFJv6N-3" target="88x0qJK0hBYKP3XFJv6N-7">
          <mxGeometry relative="1" as="geometry" />
        </mxCell>
        <mxCell id="88x0qJK0hBYKP3XFJv6N-10" value="Sim" style="edgeLabel;html=1;align=center;verticalAlign=middle;resizable=0;points=[];" vertex="1" connectable="0" parent="88x0qJK0hBYKP3XFJv6N-9">
          <mxGeometry x="-0.3838" y="-3" relative="1" as="geometry">
            <mxPoint y="-7" as="offset" />
          </mxGeometry>
        </mxCell>
        <mxCell id="88x0qJK0hBYKP3XFJv6N-3" value="random &amp;lt; P_Tipo1 ?" style="rhombus;whiteSpace=wrap;html=1;" vertex="1" parent="1">
          <mxGeometry x="130" y="250" width="120" height="120" as="geometry" />
        </mxCell>
        <mxCell id="88x0qJK0hBYKP3XFJv6N-13" style="edgeStyle=orthogonalEdgeStyle;rounded=0;orthogonalLoop=1;jettySize=auto;html=1;exitX=0.5;exitY=1;exitDx=0;exitDy=0;entryX=0.5;entryY=0;entryDx=0;entryDy=0;" edge="1" parent="1" source="88x0qJK0hBYKP3XFJv6N-6" target="88x0qJK0hBYKP3XFJv6N-12">
          <mxGeometry relative="1" as="geometry" />
        </mxCell>
        <mxCell id="88x0qJK0hBYKP3XFJv6N-6" value="Entidade tipo 2 gerada" style="rounded=0;whiteSpace=wrap;html=1;" vertex="1" parent="1">
          <mxGeometry x="280" y="280" width="120" height="60" as="geometry" />
        </mxCell>
        <mxCell id="88x0qJK0hBYKP3XFJv6N-21" style="edgeStyle=orthogonalEdgeStyle;rounded=0;orthogonalLoop=1;jettySize=auto;html=1;exitX=0;exitY=0.5;exitDx=0;exitDy=0;entryX=1;entryY=0.5;entryDx=0;entryDy=0;" edge="1" parent="1" source="88x0qJK0hBYKP3XFJv6N-7" target="88x0qJK0hBYKP3XFJv6N-20">
          <mxGeometry relative="1" as="geometry" />
        </mxCell>
        <mxCell id="88x0qJK0hBYKP3XFJv6N-7" value="Entidade tipo 1 gerada" style="rounded=0;whiteSpace=wrap;html=1;" vertex="1" parent="1">
          <mxGeometry x="-20" y="280" width="120" height="60" as="geometry" />
        </mxCell>
        <mxCell id="88x0qJK0hBYKP3XFJv6N-16" style="edgeStyle=orthogonalEdgeStyle;rounded=0;orthogonalLoop=1;jettySize=auto;html=1;exitX=1;exitY=0.5;exitDx=0;exitDy=0;entryX=0;entryY=0.5;entryDx=0;entryDy=0;" edge="1" parent="1" source="88x0qJK0hBYKP3XFJv6N-12" target="88x0qJK0hBYKP3XFJv6N-14">
          <mxGeometry relative="1" as="geometry" />
        </mxCell>
        <mxCell id="88x0qJK0hBYKP3XFJv6N-18" value="Sim" style="edgeLabel;html=1;align=center;verticalAlign=middle;resizable=0;points=[];" vertex="1" connectable="0" parent="88x0qJK0hBYKP3XFJv6N-16">
          <mxGeometry x="-0.3241" y="1" relative="1" as="geometry">
            <mxPoint x="4" y="-9" as="offset" />
          </mxGeometry>
        </mxCell>
        <mxCell id="88x0qJK0hBYKP3XFJv6N-17" style="edgeStyle=orthogonalEdgeStyle;rounded=0;orthogonalLoop=1;jettySize=auto;html=1;exitX=0.5;exitY=1;exitDx=0;exitDy=0;entryX=0.5;entryY=0;entryDx=0;entryDy=0;" edge="1" parent="1" source="88x0qJK0hBYKP3XFJv6N-12" target="88x0qJK0hBYKP3XFJv6N-15">
          <mxGeometry relative="1" as="geometry" />
        </mxCell>
        <mxCell id="88x0qJK0hBYKP3XFJv6N-19" value="Não" style="edgeLabel;html=1;align=center;verticalAlign=middle;resizable=0;points=[];" vertex="1" connectable="0" parent="88x0qJK0hBYKP3XFJv6N-17">
          <mxGeometry x="-0.2713" y="1" relative="1" as="geometry">
            <mxPoint x="19" as="offset" />
          </mxGeometry>
        </mxCell>
        <mxCell id="88x0qJK0hBYKP3XFJv6N-12" value="Servidor A e B&amp;nbsp;&lt;div&gt;livres?&lt;/div&gt;" style="rhombus;whiteSpace=wrap;html=1;" vertex="1" parent="1">
          <mxGeometry x="280" y="370" width="120" height="120" as="geometry" />
        </mxCell>
        <mxCell id="3a4Islxxwx3yJTBfAASu-4" style="edgeStyle=orthogonalEdgeStyle;rounded=0;orthogonalLoop=1;jettySize=auto;html=1;exitX=0.5;exitY=1;exitDx=0;exitDy=0;entryX=0.5;entryY=0;entryDx=0;entryDy=0;" edge="1" parent="1" source="88x0qJK0hBYKP3XFJv6N-14" target="3a4Islxxwx3yJTBfAASu-3">
          <mxGeometry relative="1" as="geometry" />
        </mxCell>
        <mxCell id="88x0qJK0hBYKP3XFJv6N-14" value="Ocupar servidores e Iniciar Serviço" style="rounded=0;whiteSpace=wrap;html=1;" vertex="1" parent="1">
          <mxGeometry x="430" y="400" width="120" height="60" as="geometry" />
        </mxCell>
        <mxCell id="88x0qJK0hBYKP3XFJv6N-38" style="edgeStyle=orthogonalEdgeStyle;rounded=0;orthogonalLoop=1;jettySize=auto;html=1;exitX=0.5;exitY=1;exitDx=0;exitDy=0;entryX=1;entryY=0.5;entryDx=0;entryDy=0;" edge="1" parent="1" source="88x0qJK0hBYKP3XFJv6N-15" target="88x0qJK0hBYKP3XFJv6N-37">
          <mxGeometry relative="1" as="geometry" />
        </mxCell>
        <mxCell id="88x0qJK0hBYKP3XFJv6N-15" value="Ir para a fila do tipo 2" style="rounded=0;whiteSpace=wrap;html=1;" vertex="1" parent="1">
          <mxGeometry x="280" y="520" width="120" height="60" as="geometry" />
        </mxCell>
        <mxCell id="88x0qJK0hBYKP3XFJv6N-23" style="edgeStyle=orthogonalEdgeStyle;rounded=0;orthogonalLoop=1;jettySize=auto;html=1;exitX=0.5;exitY=1;exitDx=0;exitDy=0;entryX=0.5;entryY=0;entryDx=0;entryDy=0;" edge="1" parent="1" source="88x0qJK0hBYKP3XFJv6N-20" target="88x0qJK0hBYKP3XFJv6N-22">
          <mxGeometry relative="1" as="geometry" />
        </mxCell>
        <mxCell id="88x0qJK0hBYKP3XFJv6N-24" value="Não" style="edgeLabel;html=1;align=center;verticalAlign=middle;resizable=0;points=[];" vertex="1" connectable="0" parent="88x0qJK0hBYKP3XFJv6N-23">
          <mxGeometry x="-0.4543" y="1" relative="1" as="geometry">
            <mxPoint x="19" as="offset" />
          </mxGeometry>
        </mxCell>
        <mxCell id="88x0qJK0hBYKP3XFJv6N-30" style="edgeStyle=orthogonalEdgeStyle;rounded=0;orthogonalLoop=1;jettySize=auto;html=1;exitX=0;exitY=0.5;exitDx=0;exitDy=0;entryX=1;entryY=0.5;entryDx=0;entryDy=0;" edge="1" parent="1" source="88x0qJK0hBYKP3XFJv6N-20" target="88x0qJK0hBYKP3XFJv6N-25">
          <mxGeometry relative="1" as="geometry" />
        </mxCell>
        <mxCell id="88x0qJK0hBYKP3XFJv6N-31" value="Sim" style="edgeLabel;html=1;align=center;verticalAlign=middle;resizable=0;points=[];" vertex="1" connectable="0" parent="88x0qJK0hBYKP3XFJv6N-30">
          <mxGeometry x="-0.175" relative="1" as="geometry">
            <mxPoint y="-10" as="offset" />
          </mxGeometry>
        </mxCell>
        <mxCell id="88x0qJK0hBYKP3XFJv6N-20" value="Servidor A livre?" style="rhombus;whiteSpace=wrap;html=1;" vertex="1" parent="1">
          <mxGeometry x="-170" y="250" width="120" height="120" as="geometry" />
        </mxCell>
        <mxCell id="88x0qJK0hBYKP3XFJv6N-28" style="edgeStyle=orthogonalEdgeStyle;rounded=0;orthogonalLoop=1;jettySize=auto;html=1;exitX=0;exitY=0.5;exitDx=0;exitDy=0;entryX=1;entryY=0.5;entryDx=0;entryDy=0;" edge="1" parent="1" source="88x0qJK0hBYKP3XFJv6N-22" target="88x0qJK0hBYKP3XFJv6N-27">
          <mxGeometry relative="1" as="geometry" />
        </mxCell>
        <mxCell id="88x0qJK0hBYKP3XFJv6N-29" value="Sim" style="edgeLabel;html=1;align=center;verticalAlign=middle;resizable=0;points=[];" vertex="1" connectable="0" parent="88x0qJK0hBYKP3XFJv6N-28">
          <mxGeometry x="-0.175" y="-1" relative="1" as="geometry">
            <mxPoint y="-9" as="offset" />
          </mxGeometry>
        </mxCell>
        <mxCell id="88x0qJK0hBYKP3XFJv6N-34" value="" style="edgeStyle=orthogonalEdgeStyle;rounded=0;orthogonalLoop=1;jettySize=auto;html=1;" edge="1" parent="1" source="88x0qJK0hBYKP3XFJv6N-22" target="88x0qJK0hBYKP3XFJv6N-32">
          <mxGeometry relative="1" as="geometry" />
        </mxCell>
        <mxCell id="88x0qJK0hBYKP3XFJv6N-35" value="" style="edgeStyle=orthogonalEdgeStyle;rounded=0;orthogonalLoop=1;jettySize=auto;html=1;" edge="1" parent="1" source="88x0qJK0hBYKP3XFJv6N-22" target="88x0qJK0hBYKP3XFJv6N-32">
          <mxGeometry relative="1" as="geometry" />
        </mxCell>
        <mxCell id="88x0qJK0hBYKP3XFJv6N-36" value="Não" style="edgeLabel;html=1;align=center;verticalAlign=middle;resizable=0;points=[];" vertex="1" connectable="0" parent="88x0qJK0hBYKP3XFJv6N-35">
          <mxGeometry x="0.3718" relative="1" as="geometry">
            <mxPoint y="-10" as="offset" />
          </mxGeometry>
        </mxCell>
        <mxCell id="88x0qJK0hBYKP3XFJv6N-22" value="Servidor B livre?" style="rhombus;whiteSpace=wrap;html=1;" vertex="1" parent="1">
          <mxGeometry x="-170" y="400" width="120" height="120" as="geometry" />
        </mxCell>
        <mxCell id="M21CRtjKScuvu9Fxckkp-2" style="edgeStyle=orthogonalEdgeStyle;rounded=0;orthogonalLoop=1;jettySize=auto;html=1;exitX=0;exitY=0.5;exitDx=0;exitDy=0;entryX=0;entryY=0.5;entryDx=0;entryDy=0;" edge="1" parent="1" source="88x0qJK0hBYKP3XFJv6N-25" target="3a4Islxxwx3yJTBfAASu-1">
          <mxGeometry relative="1" as="geometry">
            <Array as="points">
              <mxPoint x="-350" y="310" />
              <mxPoint x="-350" y="555" />
            </Array>
          </mxGeometry>
        </mxCell>
        <mxCell id="88x0qJK0hBYKP3XFJv6N-25" value="Ocupar servidor e Iniciar Serviço" style="rounded=0;whiteSpace=wrap;html=1;" vertex="1" parent="1">
          <mxGeometry x="-320" y="280" width="120" height="60" as="geometry" />
        </mxCell>
        <mxCell id="M21CRtjKScuvu9Fxckkp-1" style="edgeStyle=orthogonalEdgeStyle;rounded=0;orthogonalLoop=1;jettySize=auto;html=1;exitX=0.5;exitY=1;exitDx=0;exitDy=0;entryX=0.5;entryY=0;entryDx=0;entryDy=0;" edge="1" parent="1" source="88x0qJK0hBYKP3XFJv6N-27" target="3a4Islxxwx3yJTBfAASu-1">
          <mxGeometry relative="1" as="geometry" />
        </mxCell>
        <mxCell id="88x0qJK0hBYKP3XFJv6N-27" value="Ocupar servidor e Iniciar Serviço" style="rounded=0;whiteSpace=wrap;html=1;" vertex="1" parent="1">
          <mxGeometry x="-320" y="430" width="120" height="60" as="geometry" />
        </mxCell>
        <mxCell id="88x0qJK0hBYKP3XFJv6N-40" style="edgeStyle=orthogonalEdgeStyle;rounded=0;orthogonalLoop=1;jettySize=auto;html=1;exitX=0.5;exitY=1;exitDx=0;exitDy=0;entryX=0;entryY=0.5;entryDx=0;entryDy=0;" edge="1" parent="1" source="88x0qJK0hBYKP3XFJv6N-32" target="88x0qJK0hBYKP3XFJv6N-37">
          <mxGeometry relative="1" as="geometry" />
        </mxCell>
        <mxCell id="88x0qJK0hBYKP3XFJv6N-32" value="Ir para a fila do tipo 1" style="rounded=0;whiteSpace=wrap;html=1;" vertex="1" parent="1">
          <mxGeometry x="-20" y="430" width="120" height="60" as="geometry" />
        </mxCell>
        <mxCell id="88x0qJK0hBYKP3XFJv6N-37" value="Return" style="ellipse;whiteSpace=wrap;html=1;" vertex="1" parent="1">
          <mxGeometry x="130" y="620" width="120" height="60" as="geometry" />
        </mxCell>
        <mxCell id="M21CRtjKScuvu9Fxckkp-3" style="edgeStyle=orthogonalEdgeStyle;rounded=0;orthogonalLoop=1;jettySize=auto;html=1;exitX=0.5;exitY=1;exitDx=0;exitDy=0;entryX=0;entryY=0.5;entryDx=0;entryDy=0;" edge="1" parent="1" source="3a4Islxxwx3yJTBfAASu-1" target="88x0qJK0hBYKP3XFJv6N-37">
          <mxGeometry relative="1" as="geometry" />
        </mxCell>
        <mxCell id="3a4Islxxwx3yJTBfAASu-1" value="&lt;div&gt;Gerar evento&lt;/div&gt;&lt;div&gt;Partida do tipo 1&lt;/div&gt;" style="rounded=0;whiteSpace=wrap;html=1;" vertex="1" parent="1">
          <mxGeometry x="-320" y="525" width="120" height="60" as="geometry" />
        </mxCell>
        <mxCell id="3a4Islxxwx3yJTBfAASu-5" style="edgeStyle=orthogonalEdgeStyle;rounded=0;orthogonalLoop=1;jettySize=auto;html=1;exitX=0.5;exitY=1;exitDx=0;exitDy=0;entryX=1;entryY=0.5;entryDx=0;entryDy=0;" edge="1" parent="1" source="3a4Islxxwx3yJTBfAASu-3" target="88x0qJK0hBYKP3XFJv6N-37">
          <mxGeometry relative="1" as="geometry" />
        </mxCell>
        <mxCell id="3a4Islxxwx3yJTBfAASu-3" value="&lt;div&gt;Gerar evento&lt;/div&gt;&lt;div&gt;Partida do tipo 2&lt;/div&gt;" style="rounded=0;whiteSpace=wrap;html=1;" vertex="1" parent="1">
          <mxGeometry x="430" y="490" width="120" height="60" as="geometry" />
        </mxCell>
      </root>
    </mxGraphModel>
  </diagram>
  <diagram id="CI43clrsNtXh8lG3E3WP" name="departure_type1">
    <mxGraphModel dx="891" dy="570" grid="1" gridSize="10" guides="1" tooltips="1" connect="1" arrows="1" fold="1" page="1" pageScale="1" pageWidth="827" pageHeight="1169" math="0" shadow="0">
      <root>
        <mxCell id="0" />
        <mxCell id="1" parent="0" />
        <mxCell id="M32YemxDoWM_3W8dHPKi-2" style="edgeStyle=orthogonalEdgeStyle;rounded=0;orthogonalLoop=1;jettySize=auto;html=1;exitX=0.5;exitY=1;exitDx=0;exitDy=0;entryX=0.5;entryY=0;entryDx=0;entryDy=0;" edge="1" parent="1" source="ecI5z5qqeuiW539bcy5n-1" target="M32YemxDoWM_3W8dHPKi-1">
          <mxGeometry relative="1" as="geometry" />
        </mxCell>
        <mxCell id="ecI5z5qqeuiW539bcy5n-1" value="Evento&lt;div&gt;Partida do tipo 1&lt;/div&gt;" style="ellipse;whiteSpace=wrap;html=1;" vertex="1" parent="1">
          <mxGeometry x="230" y="150" width="120" height="60" as="geometry" />
        </mxCell>
        <mxCell id="GBI8u0a7LIWM6lZitF6l-2" style="edgeStyle=orthogonalEdgeStyle;rounded=0;orthogonalLoop=1;jettySize=auto;html=1;exitX=0.5;exitY=1;exitDx=0;exitDy=0;entryX=0.5;entryY=0;entryDx=0;entryDy=0;" edge="1" parent="1" source="M32YemxDoWM_3W8dHPKi-1" target="GBI8u0a7LIWM6lZitF6l-1">
          <mxGeometry relative="1" as="geometry" />
        </mxCell>
        <mxCell id="M32YemxDoWM_3W8dHPKi-1" value="Liberar servidor" style="rounded=0;whiteSpace=wrap;html=1;" vertex="1" parent="1">
          <mxGeometry x="230" y="240" width="120" height="60" as="geometry" />
        </mxCell>
        <mxCell id="GBI8u0a7LIWM6lZitF6l-5" style="edgeStyle=orthogonalEdgeStyle;rounded=0;orthogonalLoop=1;jettySize=auto;html=1;exitX=1;exitY=0.5;exitDx=0;exitDy=0;entryX=0;entryY=0.5;entryDx=0;entryDy=0;" edge="1" parent="1" source="GBI8u0a7LIWM6lZitF6l-1" target="GBI8u0a7LIWM6lZitF6l-3">
          <mxGeometry relative="1" as="geometry" />
        </mxCell>
        <mxCell id="GBI8u0a7LIWM6lZitF6l-6" value="Sim" style="edgeLabel;html=1;align=center;verticalAlign=middle;resizable=0;points=[];" vertex="1" connectable="0" parent="GBI8u0a7LIWM6lZitF6l-5">
          <mxGeometry x="-0.0889" y="1" relative="1" as="geometry">
            <mxPoint y="-9" as="offset" />
          </mxGeometry>
        </mxCell>
        <mxCell id="6devfGFP8carJBZkyxde-2" style="edgeStyle=orthogonalEdgeStyle;rounded=0;orthogonalLoop=1;jettySize=auto;html=1;exitX=0;exitY=0.5;exitDx=0;exitDy=0;entryX=1;entryY=0.5;entryDx=0;entryDy=0;" edge="1" parent="1" source="GBI8u0a7LIWM6lZitF6l-1" target="6devfGFP8carJBZkyxde-1">
          <mxGeometry relative="1" as="geometry" />
        </mxCell>
        <mxCell id="6devfGFP8carJBZkyxde-3" value="Não" style="edgeLabel;html=1;align=center;verticalAlign=middle;resizable=0;points=[];" vertex="1" connectable="0" parent="6devfGFP8carJBZkyxde-2">
          <mxGeometry x="-0.0874" y="-2" relative="1" as="geometry">
            <mxPoint y="-8" as="offset" />
          </mxGeometry>
        </mxCell>
        <mxCell id="GBI8u0a7LIWM6lZitF6l-1" value="Fila tipo 2 &amp;gt; 0&amp;nbsp;&lt;div&gt;e servidor A e B&amp;nbsp;&lt;div&gt;livres?&lt;/div&gt;&lt;/div&gt;" style="rhombus;whiteSpace=wrap;html=1;" vertex="1" parent="1">
          <mxGeometry x="230" y="330" width="120" height="120" as="geometry" />
        </mxCell>
        <mxCell id="7vCy-gDI8Uy0YyXZgQl3-3" style="edgeStyle=orthogonalEdgeStyle;rounded=0;orthogonalLoop=1;jettySize=auto;html=1;exitX=0.5;exitY=1;exitDx=0;exitDy=0;entryX=0.5;entryY=0;entryDx=0;entryDy=0;" edge="1" parent="1" source="GBI8u0a7LIWM6lZitF6l-3" target="7vCy-gDI8Uy0YyXZgQl3-1">
          <mxGeometry relative="1" as="geometry" />
        </mxCell>
        <mxCell id="GBI8u0a7LIWM6lZitF6l-3" value="Ocupar servidores e Iniciar Serviço" style="rounded=0;whiteSpace=wrap;html=1;" vertex="1" parent="1">
          <mxGeometry x="380" y="360" width="120" height="60" as="geometry" />
        </mxCell>
        <mxCell id="6devfGFP8carJBZkyxde-5" style="edgeStyle=orthogonalEdgeStyle;rounded=0;orthogonalLoop=1;jettySize=auto;html=1;exitX=0.5;exitY=1;exitDx=0;exitDy=0;entryX=0.5;entryY=0;entryDx=0;entryDy=0;" edge="1" parent="1" source="6devfGFP8carJBZkyxde-1" target="6devfGFP8carJBZkyxde-4">
          <mxGeometry relative="1" as="geometry" />
        </mxCell>
        <mxCell id="6devfGFP8carJBZkyxde-6" value="Sim" style="edgeLabel;html=1;align=center;verticalAlign=middle;resizable=0;points=[];" vertex="1" connectable="0" parent="6devfGFP8carJBZkyxde-5">
          <mxGeometry x="-0.1517" y="-2" relative="1" as="geometry">
            <mxPoint x="22" as="offset" />
          </mxGeometry>
        </mxCell>
        <mxCell id="6devfGFP8carJBZkyxde-10" style="edgeStyle=orthogonalEdgeStyle;rounded=0;orthogonalLoop=1;jettySize=auto;html=1;exitX=0;exitY=0.5;exitDx=0;exitDy=0;entryX=0;entryY=0.5;entryDx=0;entryDy=0;" edge="1" parent="1" source="6devfGFP8carJBZkyxde-1" target="6devfGFP8carJBZkyxde-7">
          <mxGeometry relative="1" as="geometry">
            <mxPoint x="50" y="630" as="targetPoint" />
            <Array as="points">
              <mxPoint x="50" y="390" />
              <mxPoint x="50" y="660" />
            </Array>
          </mxGeometry>
        </mxCell>
        <mxCell id="09TZAcOzLHPYsNHVANSE-1" value="Não" style="edgeLabel;html=1;align=center;verticalAlign=middle;resizable=0;points=[];" vertex="1" connectable="0" parent="6devfGFP8carJBZkyxde-10">
          <mxGeometry x="-0.9476" y="2" relative="1" as="geometry">
            <mxPoint y="-12" as="offset" />
          </mxGeometry>
        </mxCell>
        <mxCell id="6devfGFP8carJBZkyxde-1" value="Fila tipo 1 &amp;gt; 0&amp;nbsp;&lt;div&gt;e servidor A ou B&amp;nbsp;&lt;div&gt;livres?&lt;/div&gt;&lt;/div&gt;" style="rhombus;whiteSpace=wrap;html=1;" vertex="1" parent="1">
          <mxGeometry x="80" y="330" width="120" height="120" as="geometry" />
        </mxCell>
        <mxCell id="7vCy-gDI8Uy0YyXZgQl3-5" style="edgeStyle=orthogonalEdgeStyle;rounded=0;orthogonalLoop=1;jettySize=auto;html=1;exitX=0.5;exitY=1;exitDx=0;exitDy=0;entryX=0.5;entryY=0;entryDx=0;entryDy=0;" edge="1" parent="1" source="6devfGFP8carJBZkyxde-4" target="7vCy-gDI8Uy0YyXZgQl3-4">
          <mxGeometry relative="1" as="geometry" />
        </mxCell>
        <mxCell id="6devfGFP8carJBZkyxde-4" value="Ocupar servidor e Iniciar Serviço" style="rounded=0;whiteSpace=wrap;html=1;" vertex="1" parent="1">
          <mxGeometry x="80" y="480" width="120" height="60" as="geometry" />
        </mxCell>
        <mxCell id="6devfGFP8carJBZkyxde-7" value="Return" style="ellipse;whiteSpace=wrap;html=1;" vertex="1" parent="1">
          <mxGeometry x="230" y="630" width="120" height="60" as="geometry" />
        </mxCell>
        <mxCell id="7vCy-gDI8Uy0YyXZgQl3-2" style="edgeStyle=orthogonalEdgeStyle;rounded=0;orthogonalLoop=1;jettySize=auto;html=1;exitX=0.5;exitY=1;exitDx=0;exitDy=0;entryX=1;entryY=0.5;entryDx=0;entryDy=0;" edge="1" parent="1" source="7vCy-gDI8Uy0YyXZgQl3-1" target="6devfGFP8carJBZkyxde-7">
          <mxGeometry relative="1" as="geometry" />
        </mxCell>
        <mxCell id="7vCy-gDI8Uy0YyXZgQl3-1" value="&lt;div&gt;Gerar evento&lt;/div&gt;&lt;div&gt;Partida do tipo 2&lt;/div&gt;" style="rounded=0;whiteSpace=wrap;html=1;" vertex="1" parent="1">
          <mxGeometry x="380" y="450" width="120" height="60" as="geometry" />
        </mxCell>
        <mxCell id="7vCy-gDI8Uy0YyXZgQl3-6" style="edgeStyle=orthogonalEdgeStyle;rounded=0;orthogonalLoop=1;jettySize=auto;html=1;exitX=0.5;exitY=1;exitDx=0;exitDy=0;entryX=0;entryY=0.5;entryDx=0;entryDy=0;" edge="1" parent="1" source="7vCy-gDI8Uy0YyXZgQl3-4" target="6devfGFP8carJBZkyxde-7">
          <mxGeometry relative="1" as="geometry">
            <Array as="points">
              <mxPoint x="140" y="660" />
              <mxPoint x="230" y="660" />
            </Array>
          </mxGeometry>
        </mxCell>
        <mxCell id="7vCy-gDI8Uy0YyXZgQl3-4" value="&lt;div&gt;Gerar evento&lt;/div&gt;&lt;div&gt;Partida do tipo 1&lt;/div&gt;" style="rounded=0;whiteSpace=wrap;html=1;" vertex="1" parent="1">
          <mxGeometry x="80" y="570" width="120" height="60" as="geometry" />
        </mxCell>
      </root>
    </mxGraphModel>
  </diagram>
  <diagram id="9I846z44eHVkcvA3khBV" name="departure_type2">
    <mxGraphModel dx="1097" dy="702" grid="1" gridSize="10" guides="1" tooltips="1" connect="1" arrows="1" fold="1" page="1" pageScale="1" pageWidth="827" pageHeight="1169" math="0" shadow="0">
      <root>
        <mxCell id="0" />
        <mxCell id="1" parent="0" />
        <mxCell id="tiWx9cv0bJVL1-_zZE09-1" style="edgeStyle=orthogonalEdgeStyle;rounded=0;orthogonalLoop=1;jettySize=auto;html=1;exitX=0.5;exitY=1;exitDx=0;exitDy=0;entryX=0.5;entryY=0;entryDx=0;entryDy=0;" edge="1" parent="1" source="tiWx9cv0bJVL1-_zZE09-2" target="tiWx9cv0bJVL1-_zZE09-4">
          <mxGeometry relative="1" as="geometry" />
        </mxCell>
        <mxCell id="tiWx9cv0bJVL1-_zZE09-2" value="Evento&lt;div&gt;Partida do tipo 2&lt;/div&gt;" style="ellipse;whiteSpace=wrap;html=1;" vertex="1" parent="1">
          <mxGeometry x="580" y="430" width="120" height="60" as="geometry" />
        </mxCell>
        <mxCell id="tiWx9cv0bJVL1-_zZE09-3" style="edgeStyle=orthogonalEdgeStyle;rounded=0;orthogonalLoop=1;jettySize=auto;html=1;exitX=0.5;exitY=1;exitDx=0;exitDy=0;entryX=0.5;entryY=0;entryDx=0;entryDy=0;" edge="1" parent="1" source="tiWx9cv0bJVL1-_zZE09-4" target="tiWx9cv0bJVL1-_zZE09-9">
          <mxGeometry relative="1" as="geometry" />
        </mxCell>
        <mxCell id="tiWx9cv0bJVL1-_zZE09-4" value="Liberar servidor" style="rounded=0;whiteSpace=wrap;html=1;" vertex="1" parent="1">
          <mxGeometry x="580" y="520" width="120" height="60" as="geometry" />
        </mxCell>
        <mxCell id="tiWx9cv0bJVL1-_zZE09-5" style="edgeStyle=orthogonalEdgeStyle;rounded=0;orthogonalLoop=1;jettySize=auto;html=1;exitX=1;exitY=0.5;exitDx=0;exitDy=0;entryX=0;entryY=0.5;entryDx=0;entryDy=0;" edge="1" parent="1" source="tiWx9cv0bJVL1-_zZE09-9" target="tiWx9cv0bJVL1-_zZE09-11">
          <mxGeometry relative="1" as="geometry" />
        </mxCell>
        <mxCell id="tiWx9cv0bJVL1-_zZE09-6" value="Sim" style="edgeLabel;html=1;align=center;verticalAlign=middle;resizable=0;points=[];" vertex="1" connectable="0" parent="tiWx9cv0bJVL1-_zZE09-5">
          <mxGeometry x="-0.0889" y="1" relative="1" as="geometry">
            <mxPoint y="-9" as="offset" />
          </mxGeometry>
        </mxCell>
        <mxCell id="tiWx9cv0bJVL1-_zZE09-7" style="edgeStyle=orthogonalEdgeStyle;rounded=0;orthogonalLoop=1;jettySize=auto;html=1;exitX=0;exitY=0.5;exitDx=0;exitDy=0;entryX=1;entryY=0.5;entryDx=0;entryDy=0;" edge="1" parent="1" source="tiWx9cv0bJVL1-_zZE09-9" target="tiWx9cv0bJVL1-_zZE09-16">
          <mxGeometry relative="1" as="geometry" />
        </mxCell>
        <mxCell id="tiWx9cv0bJVL1-_zZE09-8" value="Não" style="edgeLabel;html=1;align=center;verticalAlign=middle;resizable=0;points=[];" vertex="1" connectable="0" parent="tiWx9cv0bJVL1-_zZE09-7">
          <mxGeometry x="-0.0874" y="-2" relative="1" as="geometry">
            <mxPoint y="-8" as="offset" />
          </mxGeometry>
        </mxCell>
        <mxCell id="tiWx9cv0bJVL1-_zZE09-9" value="Fila tipo 2 &amp;gt; 0&amp;nbsp;" style="rhombus;whiteSpace=wrap;html=1;" vertex="1" parent="1">
          <mxGeometry x="580" y="610" width="120" height="120" as="geometry" />
        </mxCell>
        <mxCell id="mjmiDmYVXwqUdPhw0tfb-6" style="edgeStyle=orthogonalEdgeStyle;rounded=0;orthogonalLoop=1;jettySize=auto;html=1;exitX=0.5;exitY=1;exitDx=0;exitDy=0;entryX=0.5;entryY=0;entryDx=0;entryDy=0;" edge="1" parent="1" source="tiWx9cv0bJVL1-_zZE09-11" target="mjmiDmYVXwqUdPhw0tfb-5">
          <mxGeometry relative="1" as="geometry" />
        </mxCell>
        <mxCell id="tiWx9cv0bJVL1-_zZE09-11" value="Ocupar servidores e Iniciar Serviço" style="rounded=0;whiteSpace=wrap;html=1;" vertex="1" parent="1">
          <mxGeometry x="730" y="640" width="120" height="60" as="geometry" />
        </mxCell>
        <mxCell id="tiWx9cv0bJVL1-_zZE09-12" style="edgeStyle=orthogonalEdgeStyle;rounded=0;orthogonalLoop=1;jettySize=auto;html=1;exitX=0.5;exitY=1;exitDx=0;exitDy=0;entryX=0.5;entryY=0;entryDx=0;entryDy=0;" edge="1" parent="1" source="tiWx9cv0bJVL1-_zZE09-16" target="tiWx9cv0bJVL1-_zZE09-18">
          <mxGeometry relative="1" as="geometry" />
        </mxCell>
        <mxCell id="tiWx9cv0bJVL1-_zZE09-13" value="Sim" style="edgeLabel;html=1;align=center;verticalAlign=middle;resizable=0;points=[];" vertex="1" connectable="0" parent="tiWx9cv0bJVL1-_zZE09-12">
          <mxGeometry x="-0.1517" y="-2" relative="1" as="geometry">
            <mxPoint x="22" as="offset" />
          </mxGeometry>
        </mxCell>
        <mxCell id="mjmiDmYVXwqUdPhw0tfb-3" style="edgeStyle=orthogonalEdgeStyle;rounded=0;orthogonalLoop=1;jettySize=auto;html=1;exitX=0;exitY=0.5;exitDx=0;exitDy=0;entryX=0;entryY=0.5;entryDx=0;entryDy=0;" edge="1" parent="1" source="tiWx9cv0bJVL1-_zZE09-16" target="tiWx9cv0bJVL1-_zZE09-19">
          <mxGeometry relative="1" as="geometry">
            <Array as="points">
              <mxPoint x="400" y="670" />
              <mxPoint x="400" y="940" />
            </Array>
          </mxGeometry>
        </mxCell>
        <mxCell id="mjmiDmYVXwqUdPhw0tfb-4" value="Não" style="edgeLabel;html=1;align=center;verticalAlign=middle;resizable=0;points=[];" vertex="1" connectable="0" parent="mjmiDmYVXwqUdPhw0tfb-3">
          <mxGeometry x="-0.9502" y="-1" relative="1" as="geometry">
            <mxPoint y="-9" as="offset" />
          </mxGeometry>
        </mxCell>
        <mxCell id="tiWx9cv0bJVL1-_zZE09-16" value="Fila tipo 1 &amp;gt; 0&amp;nbsp;" style="rhombus;whiteSpace=wrap;html=1;" vertex="1" parent="1">
          <mxGeometry x="430" y="610" width="120" height="120" as="geometry" />
        </mxCell>
        <mxCell id="mjmiDmYVXwqUdPhw0tfb-7" style="edgeStyle=orthogonalEdgeStyle;rounded=0;orthogonalLoop=1;jettySize=auto;html=1;exitX=0.5;exitY=1;exitDx=0;exitDy=0;entryX=0.5;entryY=0;entryDx=0;entryDy=0;" edge="1" parent="1" source="tiWx9cv0bJVL1-_zZE09-18" target="mjmiDmYVXwqUdPhw0tfb-1">
          <mxGeometry relative="1" as="geometry" />
        </mxCell>
        <mxCell id="tiWx9cv0bJVL1-_zZE09-18" value="Ocupar servidor e Iniciar Serviço" style="rounded=0;whiteSpace=wrap;html=1;" vertex="1" parent="1">
          <mxGeometry x="430" y="760" width="120" height="60" as="geometry" />
        </mxCell>
        <mxCell id="tiWx9cv0bJVL1-_zZE09-19" value="Return" style="ellipse;whiteSpace=wrap;html=1;" vertex="1" parent="1">
          <mxGeometry x="580" y="910" width="120" height="60" as="geometry" />
        </mxCell>
        <mxCell id="mjmiDmYVXwqUdPhw0tfb-2" style="edgeStyle=orthogonalEdgeStyle;rounded=0;orthogonalLoop=1;jettySize=auto;html=1;exitX=0.5;exitY=1;exitDx=0;exitDy=0;entryX=0;entryY=0.5;entryDx=0;entryDy=0;" edge="1" parent="1" source="mjmiDmYVXwqUdPhw0tfb-1" target="tiWx9cv0bJVL1-_zZE09-19">
          <mxGeometry relative="1" as="geometry" />
        </mxCell>
        <mxCell id="mjmiDmYVXwqUdPhw0tfb-1" value="&lt;div&gt;Gerar evento&lt;/div&gt;&lt;div&gt;Partida do tipo 1&lt;/div&gt;" style="rounded=0;whiteSpace=wrap;html=1;" vertex="1" parent="1">
          <mxGeometry x="430" y="850" width="120" height="60" as="geometry" />
        </mxCell>
        <mxCell id="mjmiDmYVXwqUdPhw0tfb-8" style="edgeStyle=orthogonalEdgeStyle;rounded=0;orthogonalLoop=1;jettySize=auto;html=1;exitX=0.5;exitY=1;exitDx=0;exitDy=0;entryX=1;entryY=0.5;entryDx=0;entryDy=0;" edge="1" parent="1" source="mjmiDmYVXwqUdPhw0tfb-5" target="tiWx9cv0bJVL1-_zZE09-19">
          <mxGeometry relative="1" as="geometry" />
        </mxCell>
        <mxCell id="mjmiDmYVXwqUdPhw0tfb-5" value="&lt;div&gt;Gerar evento&lt;/div&gt;&lt;div&gt;Partida do tipo 2&lt;/div&gt;" style="rounded=0;whiteSpace=wrap;html=1;" vertex="1" parent="1">
          <mxGeometry x="730" y="730" width="120" height="60" as="geometry" />
        </mxCell>
      </root>
    </mxGraphModel>
  </diagram>
  <diagram id="ePyxVrhBTPPFuCgVb_pG" name="event_graph">
    <mxGraphModel dx="713" dy="456" grid="1" gridSize="10" guides="1" tooltips="1" connect="1" arrows="1" fold="1" page="1" pageScale="1" pageWidth="827" pageHeight="1169" math="0" shadow="0">
      <root>
        <mxCell id="0" />
        <mxCell id="1" parent="0" />
        <mxCell id="sUlPNK38MKMikf3FdNvN-3" style="edgeStyle=orthogonalEdgeStyle;rounded=0;orthogonalLoop=1;jettySize=auto;html=1;exitX=1;exitY=0.5;exitDx=0;exitDy=0;entryX=0;entryY=0.5;entryDx=0;entryDy=0;curved=1;strokeWidth=2;" edge="1" parent="1" source="rYFw0z_I4oFiMZ22_zOH-1" target="sUlPNK38MKMikf3FdNvN-2">
          <mxGeometry relative="1" as="geometry" />
        </mxCell>
        <mxCell id="sUlPNK38MKMikf3FdNvN-4" style="edgeStyle=orthogonalEdgeStyle;rounded=0;orthogonalLoop=1;jettySize=auto;html=1;exitX=1;exitY=0.5;exitDx=0;exitDy=0;entryX=0;entryY=0.5;entryDx=0;entryDy=0;curved=1;strokeWidth=2;" edge="1" parent="1" source="rYFw0z_I4oFiMZ22_zOH-1" target="sUlPNK38MKMikf3FdNvN-1">
          <mxGeometry relative="1" as="geometry" />
        </mxCell>
        <mxCell id="rYFw0z_I4oFiMZ22_zOH-1" value="Chegada" style="ellipse;whiteSpace=wrap;html=1;aspect=fixed;" vertex="1" parent="1">
          <mxGeometry x="330" y="450" width="80" height="80" as="geometry" />
        </mxCell>
        <mxCell id="rYFw0z_I4oFiMZ22_zOH-2" value="" style="endArrow=classic;html=1;rounded=0;entryX=0;entryY=0.5;entryDx=0;entryDy=0;" edge="1" parent="1" target="rYFw0z_I4oFiMZ22_zOH-1">
          <mxGeometry width="50" height="50" relative="1" as="geometry">
            <mxPoint x="260" y="490" as="sourcePoint" />
            <mxPoint x="370" y="480" as="targetPoint" />
            <Array as="points">
              <mxPoint x="270" y="490" />
              <mxPoint x="270" y="500" />
              <mxPoint x="280" y="480" />
              <mxPoint x="290" y="500" />
              <mxPoint x="300" y="480" />
              <mxPoint x="310" y="500" />
              <mxPoint x="320" y="480" />
              <mxPoint x="320" y="490" />
            </Array>
          </mxGeometry>
        </mxCell>
        <mxCell id="7WlhT39YGsP4SgiPLU9s-1" style="rounded=0;orthogonalLoop=1;jettySize=auto;html=1;exitX=0;exitY=0;exitDx=0;exitDy=0;entryX=1;entryY=0;entryDx=0;entryDy=0;edgeStyle=orthogonalEdgeStyle;curved=1;strokeWidth=2;" edge="1" parent="1" source="rYFw0z_I4oFiMZ22_zOH-1" target="rYFw0z_I4oFiMZ22_zOH-1">
          <mxGeometry relative="1" as="geometry">
            <Array as="points">
              <mxPoint x="342" y="430" />
              <mxPoint x="398" y="430" />
            </Array>
          </mxGeometry>
        </mxCell>
        <mxCell id="n_LVeiaNrZhUx1zHoiDA-1" style="edgeStyle=orthogonalEdgeStyle;rounded=0;orthogonalLoop=1;jettySize=auto;html=1;exitX=1;exitY=0.5;exitDx=0;exitDy=0;entryX=1;entryY=0.5;entryDx=0;entryDy=0;strokeWidth=2;curved=1;startArrow=classic;startFill=1;" edge="1" parent="1" source="sUlPNK38MKMikf3FdNvN-1" target="sUlPNK38MKMikf3FdNvN-2">
          <mxGeometry relative="1" as="geometry">
            <Array as="points">
              <mxPoint x="660" y="410" />
              <mxPoint x="660" y="570" />
            </Array>
          </mxGeometry>
        </mxCell>
        <mxCell id="sUlPNK38MKMikf3FdNvN-1" value="Partida do&amp;nbsp;&lt;div&gt;tipo 1&lt;/div&gt;" style="ellipse;whiteSpace=wrap;html=1;aspect=fixed;" vertex="1" parent="1">
          <mxGeometry x="550" y="370" width="80" height="80" as="geometry" />
        </mxCell>
        <mxCell id="sUlPNK38MKMikf3FdNvN-2" value="Partida do&amp;nbsp;&lt;div&gt;tipo 2&lt;/div&gt;" style="ellipse;whiteSpace=wrap;html=1;aspect=fixed;" vertex="1" parent="1">
          <mxGeometry x="550" y="530" width="80" height="80" as="geometry" />
        </mxCell>
        <mxCell id="lifkwgHfpqqQdP5tsd9R-1" style="rounded=0;orthogonalLoop=1;jettySize=auto;html=1;exitX=0;exitY=0;exitDx=0;exitDy=0;entryX=1;entryY=0;entryDx=0;entryDy=0;edgeStyle=orthogonalEdgeStyle;curved=1;strokeWidth=2;" edge="1" parent="1">
          <mxGeometry relative="1" as="geometry">
            <mxPoint x="562" y="382" as="sourcePoint" />
            <mxPoint x="618" y="382" as="targetPoint" />
            <Array as="points">
              <mxPoint x="562" y="350" />
              <mxPoint x="618" y="350" />
            </Array>
          </mxGeometry>
        </mxCell>
        <mxCell id="lifkwgHfpqqQdP5tsd9R-2" style="rounded=0;orthogonalLoop=1;jettySize=auto;html=1;exitX=0;exitY=0;exitDx=0;exitDy=0;entryX=1;entryY=0;entryDx=0;entryDy=0;edgeStyle=orthogonalEdgeStyle;curved=1;strokeWidth=2;" edge="1" parent="1">
          <mxGeometry relative="1" as="geometry">
            <mxPoint x="562" y="542" as="sourcePoint" />
            <mxPoint x="618" y="542" as="targetPoint" />
            <Array as="points">
              <mxPoint x="562" y="510" />
              <mxPoint x="618" y="510" />
            </Array>
          </mxGeometry>
        </mxCell>
      </root>
    </mxGraphModel>
  </diagram>
</mxfile>
